<?xml version="1.0" encoding="utf-8"?>
<!-- Generator: Adobe Illustrator 17.1.0, SVG Export Plug-In . SVG Version: 6.00 Build 0)  -->
<!DOCTYPE svg PUBLIC "-//W3C//DTD SVG 1.1//EN" "http://www.w3.org/Graphics/SVG/1.1/DTD/svg11.dtd">
<svg version="1.1" id="Layer_1" xmlns="http://www.w3.org/2000/svg" xmlns:xlink="http://www.w3.org/1999/xlink" x="0px" y="0px"
	 viewBox="0 0 96 96" enable-background="new 0 0 96 96" xml:space="preserve">
<path fill="#222222" d="M30.7,11.2c14.9-14.9,39.1-14.9,54.1,0c14.9,14.9,14.9,39.1,0,54.1C72.1,78,52.7,79.8,38,70.9L15.6,93.3
	c-3.6,3.6-9.4,3.6-12.9,0c-3.6-3.6-3.6-9.4,0-12.9L25.1,58C16.2,43.3,18,23.9,30.7,11.2z M41,55c9.3,9.3,24.3,9.3,33.6,0
	c9.3-9.3,9.3-24.3,0-33.6c-9.3-9.3-24.3-9.3-33.6,0C31.7,30.7,31.7,45.7,41,55z"/>
</svg>
