<?xml version="1.0" encoding="utf-8"?>
<!-- Generator: Adobe Illustrator 17.1.0, SVG Export Plug-In . SVG Version: 6.00 Build 0)  -->
<!DOCTYPE svg PUBLIC "-//W3C//DTD SVG 1.1 Tiny//EN" "http://www.w3.org/Graphics/SVG/1.1/DTD/svg11-tiny.dtd">
<svg version="1.1" baseProfile="tiny" id="Layer_1" xmlns="http://www.w3.org/2000/svg" xmlns:xlink="http://www.w3.org/1999/xlink"
	 x="0px" y="0px" viewBox="0 0 96 58" xml:space="preserve">
<path fill-rule="evenodd" d="M94.1,46.5c-0.8-0.8-1.5-2.2-1.9-2.9c-0.3-0.8-0.8-0.9-1.2-2.3c-0.4-1.4,0.5-3.6,0.8-4.5
	c0.2-0.8,0.7-1.6,0.7-2.1c0-0.6,0.1-1.1,0.4-2.1c0.3-1,0.3-2.2,0.3-4.1c0-1.9,0.5-2.9,0.7-3.6c0.2-0.7,0.4-2.2,0.1-4.2
	c-0.2-2-1.3-3.7-2.1-5.3c-0.8-1.6-2.1-2.9-2.9-4c-0.8-1.1-2-2.5-2.9-3.8c-0.9-1.2-3.3-2.7-4.2-3.2c-0.9-0.4-3.4-1.3-5.8-1.9
	c-2.3-0.6-8.6-0.4-9.9-0.3c-1.3,0-4.8,0.7-5.7,0.9S56,3.2,53.9,3c-2.1-0.2-4.4-1.6-5.5-2.1c-1.1-0.5-3.9-1-5.2-0.9
	c-1.3,0-3.1,0.2-4.9,1.1c-1.9,0.9-3.2,2.1-3.9,2.5C33.6,4,33,4.2,31.8,4.3c-1.2,0.1-2.8,0-4.4,0s-3.3,0.7-3.9,0.8
	c-0.7,0-1.3-0.2-2-0.2c-0.7,0-1.1,0.3-1.7,0.3c-0.6,0.1-1.6,0.2-2.2-0.5c-0.6-0.7-1.5-0.7-2.1-0.7c-0.6,0-1.6,1.1-1.8,1.5
	c-0.2,0.3-0.4,1.6-0.6,1.9S11.5,8.3,11,8.6c-0.5,0.3-1.9,0.8-2.5,1.1C7.9,10,6.9,11,6.7,11.2c-0.2,0.2,0,1.2-0.2,1.4
	c-0.1,0.2-1,0.7-1.5,1c-0.5,0.3-2.4,1.3-3.3,1.7c-0.9,0.4-1.5,0.7-1.7,1.2c-0.2,0.4,0.2,1.2,0.5,1.3c0.3,0.1,0.4,0.5,0.5,0.7
	c0.1,0.1,0.2,1.4,0.6,1.7c0.4,0.3,1.6,0.1,1.7,0.6c0.1,0.5-0.8,0.4-0.7,0.7c0,0.3,1.2,1.3,1.8,1.3c0.6,0.1,2.3,0.3,3.3,0.3
	s0.2,0.9,2.5,1.5c2.3,0.6,5.1,0.2,5.9,0.2s1.7,1.2,2.7,1.7c1,0.4,1.6,0.4,3.7,0.6c2.1,0.1,3.5,0.1,5.4,1c1.9,0.9,1.3,3.8,2,4.5
	c0.7,0.7,2.3,0.8,3,1.7c0.7,0.9,0.2,4.6,0.7,8.7c0.5,4.1,1.2,8.7,1.2,8.7c-0.1,0.6,0.1,0-0.4,0.3c-0.5,0.2-0.8,0.3-1.9,0.3
	c-1.1,0-2.7,0.7-3.6,1.2s-1.4,2-1.1,2.3c0.3,0.4,4.4,0.6,5.6,0.6c1.2,0,1.7,0.7,2,0.9c0.2,0.1,2.7,0.7,3.4,0.7s2-0.2,2.4-0.3
	c0.4-0.1,7.6-0.1,7.6-0.1s0.7-0.6,0.9-0.8c0.2-0.2,0.3-1.9,0.4-3.3c0.1-1.5,0.8-2.5,1.2-3.4c0.4-0.9,1.2-1.7,1.5-3.1
	c0.3-1.5,2-6.5,2.3-7.6c0.3-1.1,0.6-2.1,1.6-2.3c1-0.2,1.7,0.9,2.9,1.5s3.2,0.4,3.8,0.7c0.6,0.3,0.6,2.6,1.4,5.6
	c0.8,3,2.1,2.8,2.9,3.5s2.3,1.6,2.3,2.6c0.1,1-0.2,1.6-3.6,2.2c-3.4,0.6-3.5,2.4-3.5,2.7c0,0.3,0.2,0.3,1.1,0.6
	c0.9,0.3,3.2,0.4,5.4,0.4c2.2,0,9.4-0.5,9.4-0.5s0.4-0.5,0.5-0.9s0.2-2.1,0.1-3.5c-0.1-1.4,0.3-2.7,0.3-2.7s1.5,0.8,2,1.4
	c0.5,0.6,2.3,1.4,3.2,1.4c0.9,0,1.7,1.2,1.7,1.9c0,0.7-1.4,1.3-2.6,2.2c-1.2,0.9,0,1.9,0,1.9l6.1,0c0,0,1.7-0.2,2.1-0.3
	c0.5-0.1,2-3.2,2.5-4.5c0.5-1.3,1.2-3,1.2-4.1C96,47.7,94.9,47.2,94.1,46.5z"/>
</svg>
