<svg xmlns="http://www.w3.org/2000/svg" xmlns:xlink="http://www.w3.org/1999/xlink" width="96" height="500" viewBox="0 0 96 500"><svg viewBox="0 0 96 96" enable-background="new 0 0 96 96" width="96" height="96" id="close" y="0"><path fill="#fff" d="M81.6 0l-33.6 33.6-33.6-33.6-14.4 14.4 33.6 33.6-33.6 33.6 14.4 14.4 33.6-33.6 33.6 33.6 14.4-14.4-33.6-33.6 33.6-33.6-14.4-14.4z"/></svg><svg viewBox="0 0 96 96" enable-background="new 0 0 96 96" width="96" height="96" id="close-dark" y="96"><path fill="#222" d="M81.6 0l-33.6 33.6-33.6-33.6-14.4 14.4 33.6 33.6-33.6 33.6 14.4 14.4 33.6-33.6 33.6 33.6 14.4-14.4-33.6-33.6 33.6-33.6-14.4-14.4z"/></svg><svg viewBox="0 0 96 96" enable-background="new 0 0 96 96" width="96" height="96" id="search" y="192"><path fill="#fff" d="M30.7 11.2c14.9-14.9 39.1-14.9 54.1 0 14.9 14.9 14.9 39.1 0 54.1-12.7 12.7-32.1 14.5-46.8 5.6l-22.4 22.4c-3.6 3.6-9.4 3.6-12.9 0-3.6-3.6-3.6-9.4 0-12.9l22.4-22.4c-8.9-14.7-7.1-34.1 5.6-46.8zm10.3 43.8c9.3 9.3 24.3 9.3 33.6 0s9.3-24.3 0-33.6-24.3-9.3-33.6 0-9.3 24.3 0 33.6z"/></svg><svg viewBox="0 0 96 96" enable-background="new 0 0 96 96" width="96" height="96" id="search-dark" y="288"><path fill="#222" d="M30.7 11.2c14.9-14.9 39.1-14.9 54.1 0 14.9 14.9 14.9 39.1 0 54.1-12.7 12.7-32.1 14.5-46.8 5.6l-22.4 22.4c-3.6 3.6-9.4 3.6-12.9 0-3.6-3.6-3.6-9.4 0-12.9l22.4-22.4c-8.9-14.7-7.1-34.1 5.6-46.8zm10.3 43.8c9.3 9.3 24.3 9.3 33.6 0s9.3-24.3 0-33.6-24.3-9.3-33.6 0-9.3 24.3 0 33.6z"/></svg><svg viewBox="0 0 96 58" enable-background="new 0 0 96 58" width="96" height="58" id="stb-logo" y="384"><path fill="#fff" d="M94.1 46.5c-.8-.8-1.5-2.2-1.9-2.9-.3-.8-.8-.9-1.2-2.3-.4-1.4.5-3.6.8-4.5.2-.8.7-1.6.7-2.1 0-.6.1-1.1.4-2.1s.3-2.2.3-4.1.5-2.9.7-3.6.4-2.2.1-4.2c-.2-2-1.3-3.7-2.1-5.3-.8-1.6-2.1-2.9-2.9-4s-2-2.5-2.9-3.8c-.9-1.2-3.3-2.7-4.2-3.2-.9-.4-3.4-1.3-5.8-1.9-2.3-.6-8.6-.4-9.9-.3-1.3 0-4.8.7-5.7.9s-4.5.1-6.6-.1-4.4-1.6-5.5-2.1-3.9-1-5.2-.9c-1.3 0-3.1.2-4.9 1.1-1.9.9-3.2 2.1-3.9 2.5-.8.4-1.4.6-2.6.7-1.2.1-2.8 0-4.4 0s-3.3.7-3.9.8l-2-.2s-1.1.3-1.7.3c-.6.1-1.6.2-2.2-.5s-1.5-.7-2.1-.7-1.6 1.1-1.8 1.5l-.6 1.9s-1.6.9-2.1 1.2-1.9.8-2.5 1.1c-.6.3-1.6 1.3-1.8 1.5l-.2 1.4c-.1.2-1 .7-1.5 1s-2.4 1.3-3.3 1.7-1.5.7-1.7 1.2c-.2.4.2 1.2.5 1.3.3.1.4.5.5.7.1.1.2 1.4.6 1.7.4.3 1.6.1 1.7.6.1.5-.8.4-.7.7 0 .3 1.2 1.3 1.8 1.3.6.1 2.3.3 3.3.3s.2.9 2.5 1.5 5.1.2 5.9.2 1.7 1.2 2.7 1.7c1 .4 1.6.4 3.7.6 2.1.1 3.5.1 5.4 1s1.3 3.8 2 4.5 2.3.8 3 1.7.2 4.6.7 8.7l1.2 8.7c-.1.6.1 0-.4.3-.5.2-.8.3-1.9.3-1.1 0-2.7.7-3.6 1.2s-1.4 2-1.1 2.3c.3.4 4.4.6 5.6.6 1.2 0 1.7.7 2 .9.2.1 2.7.7 3.4.7s2-.2 2.4-.3l7.6-.1s.7-.6.9-.8.3-1.9.4-3.3c.1-1.5.8-2.5 1.2-3.4s1.2-1.7 1.5-3.1c.3-1.5 2-6.5 2.3-7.6s.6-2.1 1.6-2.3 1.7.9 2.9 1.5 3.2.4 3.8.7.6 2.6 1.4 5.6 2.1 2.8 2.9 3.5 2.3 1.6 2.3 2.6c.1 1-.2 1.6-3.6 2.2-3.4.6-3.5 2.4-3.5 2.7s.2.3 1.1.6c.9.3 3.2.4 5.4.4s9.4-.5 9.4-.5.4-.5.5-.9.2-2.1.1-3.5l.3-2.7s1.5.8 2 1.4c.5.6 2.3 1.4 3.2 1.4.9 0 1.7 1.2 1.7 1.9s-1.4 1.3-2.6 2.2v1.9h6.1s1.7-.2 2.1-.3c.5-.1 2-3.2 2.5-4.5s1.2-3 1.2-4.1c.1-1.5-1-2-1.8-2.7z"/></svg><svg viewBox="0 0 96 58" enable-background="new 0 0 96 58" width="96" height="58" id="stb-logo-dark" y="442"><path fill="#222" d="M94.1 46.5c-.8-.8-1.5-2.2-1.9-2.9-.3-.8-.8-.9-1.2-2.3-.4-1.4.5-3.6.8-4.5.2-.8.7-1.6.7-2.1 0-.6.1-1.1.4-2.1s.3-2.2.3-4.1.5-2.9.7-3.6.4-2.2.1-4.2c-.2-2-1.3-3.7-2.1-5.3-.8-1.6-2.1-2.9-2.9-4s-2-2.5-2.9-3.8c-.9-1.2-3.3-2.7-4.2-3.2-.9-.4-3.4-1.3-5.8-1.9-2.3-.6-8.6-.4-9.9-.3-1.3 0-4.8.7-5.7.9s-4.5.1-6.6-.1-4.4-1.6-5.5-2.1-3.9-1-5.2-.9c-1.3 0-3.1.2-4.9 1.1-1.9.9-3.2 2.1-3.9 2.5-.8.4-1.4.6-2.6.7-1.2.1-2.8 0-4.4 0s-3.3.7-3.9.8l-2-.2s-1.1.3-1.7.3c-.6.1-1.6.2-2.2-.5s-1.5-.7-2.1-.7-1.6 1.1-1.8 1.5l-.6 1.9s-1.6.9-2.1 1.2-1.9.8-2.5 1.1c-.6.3-1.6 1.3-1.8 1.5l-.2 1.4c-.1.2-1 .7-1.5 1s-2.4 1.3-3.3 1.7-1.5.7-1.7 1.2c-.2.4.2 1.2.5 1.3.3.1.4.5.5.7.1.1.2 1.4.6 1.7.4.3 1.6.1 1.7.6.1.5-.8.4-.7.7 0 .3 1.2 1.3 1.8 1.3.6.1 2.3.3 3.3.3s.2.9 2.5 1.5 5.1.2 5.9.2 1.7 1.2 2.7 1.7c1 .4 1.6.4 3.7.6 2.1.1 3.5.1 5.4 1s1.3 3.8 2 4.5 2.3.8 3 1.7.2 4.6.7 8.7l1.2 8.7c-.1.6.1 0-.4.3-.5.2-.8.3-1.9.3-1.1 0-2.7.7-3.6 1.2s-1.4 2-1.1 2.3c.3.4 4.4.6 5.6.6 1.2 0 1.7.7 2 .9.2.1 2.7.7 3.4.7s2-.2 2.4-.3l7.6-.1s.7-.6.9-.8.3-1.9.4-3.3c.1-1.5.8-2.5 1.2-3.4s1.2-1.7 1.5-3.1c.3-1.5 2-6.5 2.3-7.6s.6-2.1 1.6-2.3 1.7.9 2.9 1.5 3.2.4 3.8.7.6 2.6 1.4 5.6 2.1 2.8 2.9 3.5 2.3 1.6 2.3 2.6c.1 1-.2 1.6-3.6 2.2-3.4.6-3.5 2.4-3.5 2.7s.2.3 1.1.6c.9.3 3.2.4 5.4.4s9.4-.5 9.4-.5.4-.5.5-.9.2-2.1.1-3.5l.3-2.7s1.5.8 2 1.4c.5.6 2.3 1.4 3.2 1.4.9 0 1.7 1.2 1.7 1.9s-1.4 1.3-2.6 2.2v1.9h6.1s1.7-.2 2.1-.3c.5-.1 2-3.2 2.5-4.5s1.2-3 1.2-4.1c.1-1.5-1-2-1.8-2.7z"/></svg></svg>