<svg xmlns="http://www.w3.org/2000/svg" xmlns:xlink="http://www.w3.org/1999/xlink" width="96" height="560" viewBox="0 0 96 560"><svg viewBox="0 0 96 29.5" enable-background="new 0 0 96 29.5" width="96" height="29.5" id="arrow-left-thin" y="0"><path fill="#222" d="M0 14.8L25.6 0v11.1H96v7.4H25.6v11.1L0 14.8z"/></svg><svg viewBox="0 0 96 29.5" enable-background="new 0 0 96 29.5" width="96" height="29.5" id="arrow-right-thin" y="30"><path fill="#222" d="M96 14.8L70.4 29.5v-11H0v-7.4h70.4V0L96 14.8z"/></svg><svg viewBox="0 0 96 96" enable-background="new 0 0 96 96" width="96" height="96" id="close" y="60"><path fill="#fff" d="M81.6 0L48 33.6 14.4 0 0 14.4 33.6 48 0 81.6 14.4 96 48 62.4 81.6 96 96 81.6 62.4 48 96 14.4 81.6 0z"/></svg><svg viewBox="0 0 96 96" enable-background="new 0 0 96 96" width="96" height="96" id="close-dark" y="156"><path fill="#222" d="M81.6 0L48 33.6 14.4 0 0 14.4 33.6 48 0 81.6 14.4 96 48 62.4 81.6 96 96 81.6 62.4 48 96 14.4 81.6 0z"/></svg><svg viewBox="0 0 96 96" enable-background="new 0 0 96 96" width="96" height="96" id="search" y="252"><path fill="#fff" d="M30.7 11.2c14.9-14.9 39.1-14.9 54.1 0 14.9 14.9 14.9 39.1 0 54.1C72.1 78 52.7 79.8 38 70.9L15.6 93.3c-3.6 3.6-9.4 3.6-12.9 0-3.6-3.6-3.6-9.4 0-12.9L25.1 58c-8.9-14.7-7.1-34.1 5.6-46.8zM41 55c9.3 9.3 24.3 9.3 33.6 0s9.3-24.3 0-33.6-24.3-9.3-33.6 0-9.3 24.3 0 33.6z"/></svg><svg viewBox="0 0 96 96" enable-background="new 0 0 96 96" width="96" height="96" id="search-dark" y="348"><path fill="#222" d="M30.7 11.2c14.9-14.9 39.1-14.9 54.1 0 14.9 14.9 14.9 39.1 0 54.1C72.1 78 52.7 79.8 38 70.9L15.6 93.3c-3.6 3.6-9.4 3.6-12.9 0-3.6-3.6-3.6-9.4 0-12.9L25.1 58c-8.9-14.7-7.1-34.1 5.6-46.8zM41 55c9.3 9.3 24.3 9.3 33.6 0s9.3-24.3 0-33.6-24.3-9.3-33.6 0-9.3 24.3 0 33.6z"/></svg><svg viewBox="0 0 96 58" enable-background="new 0 0 96 58" width="96" height="58" id="stb-logo" y="444"><path fill="#fff" d="M94.1 46.5c-.8-.8-1.5-2.2-1.9-2.9-.3-.8-.8-.9-1.2-2.3-.4-1.4.5-3.6.8-4.5.2-.8.7-1.6.7-2.1 0-.6.1-1.1.4-2.1s.3-2.2.3-4.1.5-2.9.7-3.6.4-2.2.1-4.2c-.2-2-1.3-3.7-2.1-5.3-.8-1.6-2.1-2.9-2.9-4s-2-2.5-2.9-3.8c-.9-1.2-3.3-2.7-4.2-3.2-.9-.4-3.4-1.3-5.8-1.9-2.3-.6-8.6-.4-9.9-.3-1.3 0-4.8.7-5.7.9s-4.5.1-6.6-.1-4.4-1.6-5.5-2.1-3.9-1-5.2-.9c-1.3 0-3.1.2-4.9 1.1-1.9.9-3.2 2.1-3.9 2.5-.8.4-1.4.6-2.6.7-1.2.1-2.8 0-4.4 0s-3.3.7-3.9.8c-.7 0-1.3-.2-2-.2s-1.1.3-1.7.3c-.6.1-1.6.2-2.2-.5S16.1 4 15.5 4s-1.6 1.1-1.8 1.5c-.2.3-.4 1.6-.6 1.9s-1.6.9-2.1 1.2-1.9.8-2.5 1.1c-.6.3-1.6 1.3-1.8 1.5-.2.2 0 1.2-.2 1.4-.1.2-1 .7-1.5 1s-2.4 1.3-3.3 1.7S.2 16 0 16.5c-.2.4.2 1.2.5 1.3.3.1.4.5.5.7.1.1.2 1.4.6 1.7.4.3 1.6.1 1.7.6.1.5-.8.4-.7.7 0 .3 1.2 1.3 1.8 1.3.6.1 2.3.3 3.3.3s.2.9 2.5 1.5 5.1.2 5.9.2 1.7 1.2 2.7 1.7c1 .4 1.6.4 3.7.6 2.1.1 3.5.1 5.4 1s1.3 3.8 2 4.5 2.3.8 3 1.7.2 4.6.7 8.7 1.2 8.7 1.2 8.7c-.1.6.1 0-.4.3-.5.2-.8.3-1.9.3-1.1 0-2.7.7-3.6 1.2s-1.4 2-1.1 2.3c.3.4 4.4.6 5.6.6 1.2 0 1.7.7 2 .9.2.1 2.7.7 3.4.7s2-.2 2.4-.3 7.6-.1 7.6-.1.7-.6.9-.8.3-1.9.4-3.3c.1-1.5.8-2.5 1.2-3.4s1.2-1.7 1.5-3.1c.3-1.5 2-6.5 2.3-7.6s.6-2.1 1.6-2.3 1.7.9 2.9 1.5 3.2.4 3.8.7.6 2.6 1.4 5.6 2.1 2.8 2.9 3.5S70 50 70 51c.1 1-.2 1.6-3.6 2.2-3.4.6-3.5 2.4-3.5 2.7s.2.3 1.1.6c.9.3 3.2.4 5.4.4s9.4-.5 9.4-.5.4-.5.5-.9.2-2.1.1-3.5.3-2.7.3-2.7 1.5.8 2 1.4c.5.6 2.3 1.4 3.2 1.4.9 0 1.7 1.2 1.7 1.9s-1.4 1.3-2.6 2.2 0 1.9 0 1.9h6.1s1.7-.2 2.1-.3c.5-.1 2-3.2 2.5-4.5s1.2-3 1.2-4.1c.1-1.5-1-2-1.8-2.7z"/></svg><svg viewBox="0 0 96 58" enable-background="new 0 0 96 58" width="96" height="58" id="stb-logo-dark" y="502"><path fill="#222" d="M94.1 46.5c-.8-.8-1.5-2.2-1.9-2.9-.3-.8-.8-.9-1.2-2.3-.4-1.4.5-3.6.8-4.5.2-.8.7-1.6.7-2.1 0-.6.1-1.1.4-2.1s.3-2.2.3-4.1.5-2.9.7-3.6.4-2.2.1-4.2c-.2-2-1.3-3.7-2.1-5.3-.8-1.6-2.1-2.9-2.9-4s-2-2.5-2.9-3.8c-.9-1.2-3.3-2.7-4.2-3.2-.9-.4-3.4-1.3-5.8-1.9-2.3-.6-8.6-.4-9.9-.3-1.3 0-4.8.7-5.7.9s-4.5.1-6.6-.1-4.4-1.6-5.5-2.1-3.9-1-5.2-.9c-1.3 0-3.1.2-4.9 1.1-1.9.9-3.2 2.1-3.9 2.5-.8.4-1.4.6-2.6.7-1.2.1-2.8 0-4.4 0s-3.3.7-3.9.8c-.7 0-1.3-.2-2-.2s-1.1.3-1.7.3c-.6.1-1.6.2-2.2-.5S16.1 4 15.5 4s-1.6 1.1-1.8 1.5c-.2.3-.4 1.6-.6 1.9s-1.6.9-2.1 1.2-1.9.8-2.5 1.1c-.6.3-1.6 1.3-1.8 1.5-.2.2 0 1.2-.2 1.4-.1.2-1 .7-1.5 1s-2.4 1.3-3.3 1.7S.2 16 0 16.5c-.2.4.2 1.2.5 1.3.3.1.4.5.5.7.1.1.2 1.4.6 1.7.4.3 1.6.1 1.7.6.1.5-.8.4-.7.7 0 .3 1.2 1.3 1.8 1.3.6.1 2.3.3 3.3.3s.2.9 2.5 1.5 5.1.2 5.9.2 1.7 1.2 2.7 1.7c1 .4 1.6.4 3.7.6 2.1.1 3.5.1 5.4 1s1.3 3.8 2 4.5 2.3.8 3 1.7.2 4.6.7 8.7 1.2 8.7 1.2 8.7c-.1.6.1 0-.4.3-.5.2-.8.3-1.9.3-1.1 0-2.7.7-3.6 1.2s-1.4 2-1.1 2.3c.3.4 4.4.6 5.6.6 1.2 0 1.7.7 2 .9.2.1 2.7.7 3.4.7s2-.2 2.4-.3 7.6-.1 7.6-.1.7-.6.9-.8.3-1.9.4-3.3c.1-1.5.8-2.5 1.2-3.4s1.2-1.7 1.5-3.1c.3-1.5 2-6.5 2.3-7.6s.6-2.1 1.6-2.3 1.7.9 2.9 1.5 3.2.4 3.8.7.6 2.6 1.4 5.6 2.1 2.8 2.9 3.5S70 50 70 51c.1 1-.2 1.6-3.6 2.2-3.4.6-3.5 2.4-3.5 2.7s.2.3 1.1.6c.9.3 3.2.4 5.4.4s9.4-.5 9.4-.5.4-.5.5-.9.2-2.1.1-3.5.3-2.7.3-2.7 1.5.8 2 1.4c.5.6 2.3 1.4 3.2 1.4.9 0 1.7 1.2 1.7 1.9s-1.4 1.3-2.6 2.2 0 1.9 0 1.9h6.1s1.7-.2 2.1-.3c.5-.1 2-3.2 2.5-4.5s1.2-3 1.2-4.1c.1-1.5-1-2-1.8-2.7z"/></svg></svg>