<?xml version="1.0" encoding="utf-8"?>
<!-- Generator: Adobe Illustrator 17.1.0, SVG Export Plug-In . SVG Version: 6.00 Build 0)  -->
<!DOCTYPE svg PUBLIC "-//W3C//DTD SVG 1.1//EN" "http://www.w3.org/Graphics/SVG/1.1/DTD/svg11.dtd">
<svg version="1.1" id="Layer_1" xmlns="http://www.w3.org/2000/svg" xmlns:xlink="http://www.w3.org/1999/xlink" x="0px" y="0px"
	 viewBox="0 0 96 58" enable-background="new 0 0 96 58" xml:space="preserve">
<path fill="#222222" d="M94.1,46.5c-0.8-0.8-1.5-2.2-1.9-2.9c-0.3-0.8-0.8-0.9-1.2-2.3c-0.4-1.4,0.5-3.6,0.8-4.5
	c0.2-0.8,0.7-1.6,0.7-2.1c0-0.6,0.1-1.1,0.4-2.1s0.3-2.2,0.3-4.1s0.5-2.9,0.7-3.6s0.4-2.2,0.1-4.2c-0.2-2-1.3-3.7-2.1-5.3
	c-0.8-1.6-2.1-2.9-2.9-4s-2-2.5-2.9-3.8c-0.9-1.2-3.3-2.7-4.2-3.2C81,4,78.5,3.1,76.1,2.5c-2.3-0.6-8.6-0.4-9.9-0.3
	c-1.3,0-4.8,0.7-5.7,0.9S56,3.2,53.9,3s-4.4-1.6-5.5-2.1s-3.9-1-5.2-0.9c-1.3,0-3.1,0.2-4.9,1.1c-1.9,0.9-3.2,2.1-3.9,2.5
	C33.6,4,33,4.2,31.8,4.3c-1.2,0.1-2.8,0-4.4,0S24.1,5,23.5,5.1c-0.7,0-1.3-0.2-2-0.2s-1.1,0.3-1.7,0.3c-0.6,0.1-1.6,0.2-2.2-0.5
	S16.1,4,15.5,4s-1.6,1.1-1.8,1.5c-0.2,0.3-0.4,1.6-0.6,1.9S11.5,8.3,11,8.6S9.1,9.4,8.5,9.7C7.9,10,6.9,11,6.7,11.2
	c-0.2,0.2,0,1.2-0.2,1.4c-0.1,0.2-1,0.7-1.5,1s-2.4,1.3-3.3,1.7S0.2,16,0,16.5c-0.2,0.4,0.2,1.2,0.5,1.3c0.3,0.1,0.4,0.5,0.5,0.7
	c0.1,0.1,0.2,1.4,0.6,1.7c0.4,0.3,1.6,0.1,1.7,0.6c0.1,0.5-0.8,0.4-0.7,0.7c0,0.3,1.2,1.3,1.8,1.3c0.6,0.1,2.3,0.3,3.3,0.3
	s0.2,0.9,2.5,1.5s5.1,0.2,5.9,0.2s1.7,1.2,2.7,1.7c1,0.4,1.6,0.4,3.7,0.6c2.1,0.1,3.5,0.1,5.4,1s1.3,3.8,2,4.5s2.3,0.8,3,1.7
	s0.2,4.6,0.7,8.7s1.2,8.7,1.2,8.7c-0.1,0.6,0.1,0-0.4,0.3c-0.5,0.2-0.8,0.3-1.9,0.3c-1.1,0-2.7,0.7-3.6,1.2s-1.4,2-1.1,2.3
	c0.3,0.4,4.4,0.6,5.6,0.6c1.2,0,1.7,0.7,2,0.9c0.2,0.1,2.7,0.7,3.4,0.7s2-0.2,2.4-0.3s7.6-0.1,7.6-0.1s0.7-0.6,0.9-0.8
	s0.3-1.9,0.4-3.3c0.1-1.5,0.8-2.5,1.2-3.4s1.2-1.7,1.5-3.1c0.3-1.5,2-6.5,2.3-7.6s0.6-2.1,1.6-2.3s1.7,0.9,2.9,1.5s3.2,0.4,3.8,0.7
	s0.6,2.6,1.4,5.6s2.1,2.8,2.9,3.5S70,50,70,51c0.1,1-0.2,1.6-3.6,2.2c-3.4,0.6-3.5,2.4-3.5,2.7s0.2,0.3,1.1,0.6
	c0.9,0.3,3.2,0.4,5.4,0.4c2.2,0,9.4-0.5,9.4-0.5s0.4-0.5,0.5-0.9s0.2-2.1,0.1-3.5s0.3-2.7,0.3-2.7s1.5,0.8,2,1.4
	c0.5,0.6,2.3,1.4,3.2,1.4c0.9,0,1.7,1.2,1.7,1.9s-1.4,1.3-2.6,2.2s0,1.9,0,1.9h6.1c0,0,1.7-0.2,2.1-0.3c0.5-0.1,2-3.2,2.5-4.5
	s1.2-3,1.2-4.1C96,47.7,94.9,47.2,94.1,46.5z"/>
</svg>
