<?xml version="1.0" encoding="utf-8"?>
<!-- Generator: Adobe Illustrator 18.0.0, SVG Export Plug-In . SVG Version: 6.00 Build 0)  -->
<!DOCTYPE svg PUBLIC "-//W3C//DTD SVG 1.1 Tiny//EN" "http://www.w3.org/Graphics/SVG/1.1/DTD/svg11-tiny.dtd">
<svg version="1.1" baseProfile="tiny" id="Layer_1" xmlns="http://www.w3.org/2000/svg" xmlns:xlink="http://www.w3.org/1999/xlink"
	 x="0px" y="0px" width="96px" height="58.1px" viewBox="0 0 96 58.1" xml:space="preserve">
<path d="M94.2,46.5c-0.8-0.8-1.5-2.2-1.9-2.9c-0.3-0.8-0.8-0.9-1.2-2.3c-0.4-1.4,0.5-3.6,0.8-4.5
	c0.2-0.8,0.7-1.6,0.7-2.1c0-0.6,0.1-1.1,0.4-2.1c0.3-1,0.3-2.2,0.3-4.1c0-1.9,0.5-2.9,0.7-3.6c0.2-0.7,0.4-2.2,0.1-4.2
	c-0.2-2-1.3-3.7-2.1-5.3c-0.8-1.6-2.1-2.9-2.9-4c-0.8-1.1-2-2.5-2.9-3.8c-0.9-1.2-3.3-2.7-4.2-3.2c-0.9-0.4-3.4-1.3-5.8-1.9
	c-2.3-0.6-8.6-0.4-9.9-0.3c-1.3,0-4.8,0.7-5.7,0.9S56.1,3.2,54,3c-2.1-0.2-4.4-1.6-5.5-2.1c-1.1-0.5-3.9-1-5.2-0.9
	c-1.3,0-3.1,0.2-4.9,1.1c-1.9,0.9-3.2,2.1-3.9,2.5c-0.8,0.4-1.4,0.6-2.6,0.7c-1.2,0.1-2.8,0-4.4,0S24.2,5,23.6,5.1
	c-0.7,0-1.3-0.2-2-0.2s-1.1,0.3-1.7,0.3c-0.6,0.1-1.6,0.2-2.2-0.5C17.1,4,16.2,4,15.6,4C15,4,14,5.1,13.8,5.5
	c-0.2,0.3-0.4,1.6-0.6,1.9s-1.6,0.9-2.1,1.2c-0.5,0.3-1.9,0.8-2.5,1.1C8,10,7,11,6.8,11.2c-0.2,0.2,0,1.2-0.2,1.4
	c-0.1,0.2-1,0.7-1.5,1c-0.5,0.3-2.4,1.3-3.3,1.7S0.3,16,0.1,16.5c-0.2,0.4,0.2,1.2,0.5,1.3c0.3,0.1,0.4,0.5,0.5,0.7
	c0.1,0.1,0.2,1.4,0.6,1.7s1.6,0.1,1.7,0.6c0.1,0.5-0.8,0.4-0.7,0.7c0,0.3,1.2,1.3,1.8,1.3c0.6,0.1,2.3,0.3,3.3,0.3S8,24,10.3,24.6
	c2.3,0.6,5.1,0.2,5.9,0.2c0.8,0,1.7,1.2,2.7,1.7c1,0.4,1.6,0.4,3.7,0.6c2.1,0.1,3.5,0.1,5.4,1c1.9,0.9,1.3,3.8,2,4.5
	c0.7,0.7,2.3,0.8,3,1.7c0.7,0.9,0.2,4.6,0.7,8.7s1.2,8.7,1.2,8.7c-0.1,0.6,0.1,0-0.4,0.3c-0.5,0.2-0.8,0.3-1.9,0.3
	c-1.1,0-2.7,0.7-3.6,1.2c-0.9,0.5-1.4,2-1.1,2.3c0.3,0.4,4.4,0.6,5.6,0.6c1.2,0,1.7,0.7,2,0.9c0.2,0.1,2.7,0.7,3.4,0.7
	c0.7,0,2-0.2,2.4-0.3c0.4-0.1,7.6-0.1,7.6-0.1s0.7-0.6,0.9-0.8c0.2-0.2,0.3-1.9,0.4-3.3c0.1-1.5,0.8-2.5,1.2-3.4
	c0.4-0.9,1.2-1.7,1.5-3.1c0.3-1.5,2-6.5,2.3-7.6c0.3-1.1,0.6-2.1,1.6-2.3s1.7,0.9,2.9,1.5c1.2,0.6,3.2,0.4,3.8,0.7
	c0.6,0.3,0.6,2.6,1.4,5.6c0.8,3,2.1,2.8,2.9,3.5c0.8,0.7,2.3,1.6,2.3,2.6c0.1,1-0.2,1.6-3.6,2.2c-3.4,0.6-3.5,2.4-3.5,2.7
	c0,0.3,0.2,0.3,1.1,0.6c0.9,0.3,3.2,0.4,5.4,0.4c2.2,0,9.4-0.5,9.4-0.5s0.4-0.5,0.5-0.9c0.1-0.4,0.2-2.1,0.1-3.5
	c-0.1-1.4,0.3-2.7,0.3-2.7s1.5,0.8,2,1.4c0.5,0.6,2.3,1.4,3.2,1.4c0.9,0,1.7,1.2,1.7,1.9s-1.4,1.3-2.6,2.2c-1.2,0.9,0,1.9,0,1.9h6.1
	c0,0,1.7-0.2,2.1-0.3c0.5-0.1,2-3.2,2.5-4.5c0.5-1.3,1.2-3,1.2-4.1C96.1,47.7,95,47.2,94.2,46.5z"/>
</svg>
